{"glyphs":{"0":{"ha":1234,"x_min":0,"x_max":1157,"o":"m 154 154 l 154 231 l 231 231 l 231 154 l 154 154 m 77 231 l 77 309 l 154 309 l 154 231 l 77 231 m 463 385 l 463 463 l 385 463 l 385 540 l 463 540 l 463 617 l 540 617 l 540 694 l 617 694 l 617 771 l 694 771 l 694 463 l 617 463 l 617 540 l 540 540 l 540 463 l 617 463 l 617 385 l 463 385 m 0 309 l 0 1157 l 77 1157 l 77 309 l 0 309 m 385 771 l 385 1080 l 463 1080 l 463 1157 l 617 1157 l 617 1080 l 694 1080 l 694 1003 l 617 1003 l 617 926 l 540 926 l 540 848 l 463 848 l 463 771 l 385 771 m 309 0 l 309 77 l 231 77 l 231 154 l 848 154 l 848 231 l 926 231 l 926 309 l 1003 309 l 1003 1157 l 1080 1157 l 1080 1080 l 1157 1080 l 1157 231 l 1080 231 l 1080 154 l 1003 154 l 1003 77 l 926 77 l 926 0 l 309 0 m 77 1157 l 77 1234 l 154 1234 l 154 1157 l 77 1157 m 926 1157 l 926 1234 l 1003 1234 l 1003 1157 l 926 1157 m 154 1234 l 154 1312 l 231 1312 l 231 1234 l 154 1234 m 848 1234 l 848 1312 l 926 1312 l 926 1234 l 848 1234 m 231 1312 l 231 1389 l 848 1389 l 848 1312 l 231 1312 z "},"1":{"ha":1003,"x_min":0,"x_max":926,"o":"m 77 1080 l 77 1157 l 154 1157 l 154 1080 l 77 1080 m 154 1157 l 154 1234 l 231 1234 l 231 1157 l 154 1157 m 231 1234 l 231 1312 l 309 1312 l 309 1234 l 231 1234 m 154 0 l 154 77 l 77 77 l 77 540 l 231 540 l 231 771 l 77 771 l 77 848 l 0 848 l 0 1080 l 77 1080 l 77 926 l 309 926 l 309 463 l 154 463 l 154 154 l 771 154 l 771 463 l 617 463 l 617 1312 l 309 1312 l 309 1389 l 694 1389 l 694 1312 l 771 1312 l 771 540 l 848 540 l 848 463 l 926 463 l 926 0 l 154 0 z "},"2":{"ha":1234,"x_min":0,"x_max":1157,"o":"m 77 540 l 77 617 l 154 617 l 154 540 l 77 540 m 154 617 l 154 694 l 309 694 l 309 617 l 154 617 m 309 694 l 309 771 l 154 771 l 154 848 l 77 848 l 77 926 l 385 926 l 385 1003 l 463 1003 l 463 1080 l 617 1080 l 617 1003 l 694 1003 l 694 848 l 617 848 l 617 926 l 540 926 l 540 848 l 617 848 l 617 771 l 463 771 l 463 694 l 309 694 m 0 926 l 0 1157 l 77 1157 l 77 926 l 0 926 m 77 0 l 77 77 l 0 77 l 0 540 l 77 540 l 77 154 l 1003 154 l 1003 385 l 463 385 l 463 540 l 540 540 l 540 617 l 771 617 l 771 694 l 926 694 l 926 771 l 1003 771 l 1003 1157 l 1080 1157 l 1080 1080 l 1157 1080 l 1157 694 l 1080 694 l 1080 617 l 1003 617 l 1003 540 l 848 540 l 848 463 l 1080 463 l 1080 385 l 1157 385 l 1157 0 l 77 0 m 77 1157 l 77 1234 l 154 1234 l 154 1157 l 77 1157 m 926 1157 l 926 1234 l 1003 1234 l 1003 1157 l 926 1157 m 154 1234 l 154 1312 l 231 1312 l 231 1234 l 154 1234 m 848 1234 l 848 1312 l 926 1312 l 926 1234 l 848 1234 m 231 1312 l 231 1389 l 848 1389 l 848 1312 l 231 1312 z "},"3":{"ha":1234,"x_min":0,"x_max":1157,"o":"m 154 154 l 154 231 l 231 231 l 231 154 l 154 154 m 77 231 l 77 309 l 154 309 l 154 231 l 77 231 m 0 309 l 0 463 l 77 463 l 77 309 l 0 309 m 385 385 l 385 463 l 617 463 l 617 385 l 385 385 m 77 463 l 77 540 l 385 540 l 385 463 l 77 463 m 617 463 l 617 540 l 540 540 l 540 617 l 463 617 l 463 694 l 617 694 l 617 617 l 694 617 l 694 463 l 617 463 m 385 694 l 385 848 l 463 848 l 463 694 l 385 694 m 463 848 l 463 926 l 617 926 l 617 848 l 463 848 m 0 1003 l 0 1157 l 77 1157 l 77 1003 l 0 1003 m 154 848 l 154 926 l 77 926 l 77 1003 l 309 1003 l 309 1080 l 385 1080 l 385 1157 l 617 1157 l 617 1080 l 694 1080 l 694 926 l 617 926 l 617 1003 l 463 1003 l 463 926 l 385 926 l 385 848 l 154 848 m 309 0 l 309 77 l 231 77 l 231 154 l 848 154 l 848 231 l 926 231 l 926 309 l 1003 309 l 1003 694 l 926 694 l 926 848 l 1003 848 l 1003 1157 l 1080 1157 l 1080 1080 l 1157 1080 l 1157 771 l 1080 771 l 1080 617 l 1157 617 l 1157 231 l 1080 231 l 1080 154 l 1003 154 l 1003 77 l 926 77 l 926 0 l 309 0 m 77 1157 l 77 1234 l 154 1234 l 154 1157 l 77 1157 m 926 1157 l 926 1234 l 1003 1234 l 1003 1157 l 926 1157 m 154 1234 l 154 1312 l 231 1312 l 231 1234 l 154 1234 m 848 1234 l 848 1312 l 926 1312 l 926 1234 l 848 1234 m 231 1312 l 231 1389 l 848 1389 l 848 1312 l 231 1312 z "},"4":{"ha":1234,"x_min":0,"x_max":1157,"o":"m 154 154 l 154 231 l 77 231 l 77 309 l 694 309 l 694 154 l 154 154 m 0 309 l 0 540 l 77 540 l 77 309 l 0 309 m 77 540 l 77 694 l 154 694 l 154 540 l 77 540 m 154 694 l 154 848 l 231 848 l 231 694 l 154 694 m 231 848 l 231 1003 l 309 1003 l 309 848 l 231 848 m 309 1003 l 309 1157 l 385 1157 l 385 1003 l 309 1003 m 385 1157 l 385 1312 l 463 1312 l 463 1157 l 385 1157 m 771 0 l 771 77 l 694 77 l 694 154 l 926 154 l 926 309 l 1003 309 l 1003 617 l 926 617 l 926 926 l 848 926 l 848 1003 l 694 1003 l 694 617 l 385 617 l 385 694 l 463 694 l 463 848 l 540 848 l 540 1003 l 617 1003 l 617 1157 l 694 1157 l 694 1312 l 771 1312 l 771 1234 l 848 1234 l 848 1080 l 926 1080 l 926 1003 l 1003 1003 l 1003 926 l 1080 926 l 1080 617 l 1157 617 l 1157 231 l 1080 231 l 1080 77 l 1003 77 l 1003 0 l 771 0 m 463 1312 l 463 1389 l 694 1389 l 694 1312 l 463 1312 z "},"5":{"ha":1234,"x_min":0,"x_max":1157,"o":"m 154 154 l 154 231 l 231 231 l 231 154 l 154 154 m 77 231 l 77 309 l 154 309 l 154 231 l 77 231 m 463 385 l 463 463 l 617 463 l 617 385 l 463 385 m 0 309 l 0 540 l 77 540 l 77 309 l 0 309 m 385 463 l 385 540 l 463 540 l 463 463 l 385 463 m 309 0 l 309 77 l 231 77 l 231 154 l 848 154 l 848 231 l 926 231 l 926 309 l 1003 309 l 1003 694 l 1080 694 l 1080 617 l 1157 617 l 1157 231 l 1080 231 l 1080 154 l 1003 154 l 1003 77 l 926 77 l 926 0 l 309 0 m 617 463 l 617 540 l 463 540 l 463 617 l 385 617 l 385 540 l 77 540 l 77 617 l 154 617 l 154 694 l 77 694 l 77 771 l 385 771 l 385 694 l 617 694 l 617 617 l 694 617 l 694 463 l 617 463 m 848 694 l 848 771 l 463 771 l 463 848 l 385 848 l 385 1080 l 1003 1080 l 1003 1312 l 77 1312 l 77 771 l 0 771 l 0 1389 l 1080 1389 l 1080 1312 l 1157 1312 l 1157 926 l 771 926 l 771 848 l 926 848 l 926 771 l 1003 771 l 1003 694 l 848 694 z "},"6":{"ha":1234,"x_min":0,"x_max":1157,"o":"m 154 154 l 154 231 l 231 231 l 231 154 l 154 154 m 77 231 l 77 309 l 154 309 l 154 231 l 77 231 m 309 0 l 309 77 l 231 77 l 231 154 l 848 154 l 848 231 l 926 231 l 926 309 l 1003 309 l 1003 617 l 1080 617 l 1080 540 l 1157 540 l 1157 231 l 1080 231 l 1080 154 l 1003 154 l 1003 77 l 926 77 l 926 0 l 309 0 m 463 385 l 463 463 l 385 463 l 385 617 l 463 617 l 463 694 l 617 694 l 617 617 l 694 617 l 694 463 l 617 463 l 617 540 l 540 540 l 540 463 l 617 463 l 617 385 l 463 385 m 926 617 l 926 694 l 1003 694 l 1003 617 l 926 617 m 848 694 l 848 771 l 926 771 l 926 694 l 848 694 m 0 309 l 0 1157 l 77 1157 l 77 309 l 0 309 m 463 771 l 463 848 l 385 848 l 385 1080 l 463 1080 l 463 1157 l 617 1157 l 617 1080 l 694 1080 l 694 1003 l 540 1003 l 540 848 l 771 848 l 771 926 l 694 926 l 694 1003 l 1003 1003 l 1003 1157 l 1080 1157 l 1080 1080 l 1157 1080 l 1157 926 l 1080 926 l 1080 848 l 848 848 l 848 771 l 463 771 m 77 1157 l 77 1234 l 154 1234 l 154 1157 l 77 1157 m 926 1157 l 926 1234 l 1003 1234 l 1003 1157 l 926 1157 m 154 1234 l 154 1312 l 231 1312 l 231 1234 l 154 1234 m 848 1234 l 848 1312 l 926 1312 l 926 1234 l 848 1234 m 231 1312 l 231 1389 l 848 1389 l 848 1312 l 231 1312 z "},"7":{"ha":1234,"x_min":0,"x_max":1157,"o":"m 231 231 l 231 385 l 309 385 l 309 231 l 231 231 m 309 385 l 309 540 l 385 540 l 385 385 l 309 385 m 385 540 l 385 694 l 463 694 l 463 540 l 385 540 m 463 694 l 463 848 l 540 848 l 540 694 l 463 694 m 231 0 l 231 77 l 154 77 l 154 231 l 231 231 l 231 154 l 540 154 l 540 231 l 617 231 l 617 385 l 694 385 l 694 540 l 771 540 l 771 694 l 848 694 l 848 848 l 926 848 l 926 1003 l 1003 1003 l 1003 1312 l 77 1312 l 77 1080 l 694 1080 l 694 1003 l 617 1003 l 617 848 l 540 848 l 540 926 l 77 926 l 77 1003 l 0 1003 l 0 1389 l 1080 1389 l 1080 1312 l 1157 1312 l 1157 926 l 1080 926 l 1080 771 l 1003 771 l 1003 617 l 926 617 l 926 463 l 848 463 l 848 309 l 771 309 l 771 154 l 694 154 l 694 0 l 231 0 z "},"8":{"ha":1234,"x_min":0,"x_max":1157,"o":"m 154 154 l 154 231 l 231 231 l 231 154 l 154 154 m 77 231 l 77 309 l 154 309 l 154 231 l 77 231 m 0 309 l 0 694 l 77 694 l 77 309 l 0 309 m 463 385 l 463 463 l 385 463 l 385 617 l 463 617 l 463 694 l 617 694 l 617 617 l 694 617 l 694 463 l 617 463 l 617 540 l 540 540 l 540 463 l 617 463 l 617 385 l 463 385 m 77 694 l 77 848 l 154 848 l 154 694 l 77 694 m 0 848 l 0 1157 l 77 1157 l 77 848 l 0 848 m 463 848 l 463 926 l 385 926 l 385 1080 l 463 1080 l 463 1157 l 617 1157 l 617 1080 l 694 1080 l 694 926 l 617 926 l 617 1003 l 540 1003 l 540 926 l 617 926 l 617 848 l 463 848 m 309 0 l 309 77 l 231 77 l 231 154 l 848 154 l 848 231 l 926 231 l 926 309 l 1003 309 l 1003 694 l 926 694 l 926 848 l 1003 848 l 1003 1157 l 1080 1157 l 1080 1080 l 1157 1080 l 1157 771 l 1080 771 l 1080 617 l 1157 617 l 1157 231 l 1080 231 l 1080 154 l 1003 154 l 1003 77 l 926 77 l 926 0 l 309 0 m 77 1157 l 77 1234 l 154 1234 l 154 1157 l 77 1157 m 926 1157 l 926 1234 l 1003 1234 l 1003 1157 l 926 1157 m 154 1234 l 154 1312 l 231 1312 l 231 1234 l 154 1234 m 848 1234 l 848 1312 l 926 1312 l 926 1234 l 848 1234 m 231 1312 l 231 1389 l 848 1389 l 848 1312 l 231 1312 z "},"9":{"ha":1234,"x_min":0,"x_max":1157,"o":"m 154 154 l 154 231 l 231 231 l 231 154 l 154 154 m 77 231 l 77 309 l 154 309 l 154 231 l 77 231 m 463 309 l 463 385 l 617 385 l 617 309 l 463 309 m 0 309 l 0 463 l 77 463 l 77 309 l 0 309 m 385 385 l 385 463 l 463 463 l 463 385 l 385 385 m 617 385 l 617 540 l 385 540 l 385 463 l 77 463 l 77 540 l 309 540 l 309 617 l 231 617 l 231 694 l 617 694 l 617 617 l 694 617 l 694 385 l 617 385 m 154 694 l 154 771 l 231 771 l 231 694 l 154 694 m 77 771 l 77 848 l 154 848 l 154 771 l 77 771 m 0 848 l 0 1157 l 77 1157 l 77 848 l 0 848 m 463 848 l 463 926 l 385 926 l 385 1080 l 463 1080 l 463 1157 l 617 1157 l 617 1080 l 694 1080 l 694 926 l 617 926 l 617 1003 l 540 1003 l 540 926 l 617 926 l 617 848 l 463 848 m 309 0 l 309 77 l 231 77 l 231 154 l 848 154 l 848 231 l 926 231 l 926 309 l 1003 309 l 1003 1157 l 1080 1157 l 1080 1080 l 1157 1080 l 1157 231 l 1080 231 l 1080 154 l 1003 154 l 1003 77 l 926 77 l 926 0 l 309 0 m 77 1157 l 77 1234 l 154 1234 l 154 1157 l 77 1157 m 926 1157 l 926 1234 l 1003 1234 l 1003 1157 l 926 1157 m 154 1234 l 154 1312 l 231 1312 l 231 1234 l 154 1234 m 848 1234 l 848 1312 l 926 1312 l 926 1234 l 848 1234 m 231 1312 l 231 1389 l 848 1389 l 848 1312 l 231 1312 z "}," ":{"ha":578,"x_min":0,"x_max":0,"o":""},"!":{"ha":617,"x_min":0,"x_max":540,"o":"m 77 0 l 77 77 l 0 77 l 0 463 l 77 463 l 77 154 l 385 154 l 385 463 l 77 463 l 77 540 l 385 540 l 385 1312 l 77 1312 l 77 540 l 0 540 l 0 1389 l 463 1389 l 463 1312 l 540 1312 l 540 463 l 463 463 l 463 385 l 540 385 l 540 0 l 77 0 z "},"'":{"ha":463,"x_min":0,"x_max":385,"o":"m 231 1003 l 231 1312 l 77 1312 l 77 1157 l 154 1157 l 154 1003 l 231 1003 m 154 848 l 154 926 l 77 926 l 77 1080 l 0 1080 l 0 1389 l 309 1389 l 309 1312 l 385 1312 l 385 926 l 309 926 l 309 848 l 154 848 z "},",":{"ha":463,"x_min":0,"x_max":385,"o":"m 231 0 l 231 309 l 77 309 l 77 154 l 154 154 l 154 0 l 231 0 m 154 -154 l 154 -77 l 77 -77 l 77 77 l 0 77 l 0 385 l 309 385 l 309 309 l 385 309 l 385 -77 l 309 -77 l 309 -154 l 154 -154 z "},".":{"ha":463,"x_min":0,"x_max":385,"o":"m 231 154 l 231 309 l 77 309 l 77 154 l 231 154 m 77 0 l 77 77 l 0 77 l 0 385 l 309 385 l 309 309 l 385 309 l 385 0 l 77 0 z "},"?":{"ha":1234,"x_min":0,"x_max":1157,"o":"m 385 154 l 385 385 l 77 385 l 77 154 l 385 154 m 77 540 l 77 617 l 154 617 l 154 540 l 77 540 m 154 617 l 154 694 l 309 694 l 309 617 l 154 617 m 309 694 l 309 771 l 154 771 l 154 848 l 77 848 l 77 926 l 385 926 l 385 1003 l 463 1003 l 463 1080 l 617 1080 l 617 1003 l 694 1003 l 694 848 l 617 848 l 617 926 l 540 926 l 540 848 l 617 848 l 617 771 l 463 771 l 463 694 l 309 694 m 0 926 l 0 1157 l 77 1157 l 77 926 l 0 926 m 77 0 l 77 77 l 0 77 l 0 540 l 77 540 l 77 463 l 463 463 l 463 540 l 540 540 l 540 617 l 771 617 l 771 694 l 926 694 l 926 771 l 1003 771 l 1003 1157 l 1080 1157 l 1080 1080 l 1157 1080 l 1157 694 l 1080 694 l 1080 617 l 1003 617 l 1003 540 l 848 540 l 848 463 l 617 463 l 617 385 l 463 385 l 463 309 l 540 309 l 540 0 l 77 0 m 77 1157 l 77 1234 l 154 1234 l 154 1157 l 77 1157 m 926 1157 l 926 1234 l 1003 1234 l 1003 1157 l 926 1157 m 154 1234 l 154 1312 l 231 1312 l 231 1234 l 154 1234 m 848 1234 l 848 1312 l 926 1312 l 926 1234 l 848 1234 m 231 1312 l 231 1389 l 848 1389 l 848 1312 l 231 1312 z "},"@":{"ha":1312,"x_min":-231,"x_max":1234,"o":"m 0 0 l 0 77 l 77 77 l 77 0 l 0 0 m 1003 0 l 1003 77 l 1080 77 l 1080 0 l 1003 0 m 231 77 l 231 154 l 771 154 l 771 77 l 231 77 m 154 154 l 154 231 l 231 231 l 231 154 l 154 154 m 617 231 l 617 309 l 1080 309 l 1080 231 l 617 231 m 77 231 l 77 385 l 154 385 l 154 231 l 77 231 m 1080 309 l 1080 385 l 1157 385 l 1157 309 l 1080 309 m 540 309 l 540 385 l 309 385 l 309 463 l 617 463 l 617 309 l 540 309 m 540 617 l 540 771 l 463 771 l 463 617 l 540 617 m 385 540 l 385 848 l 617 848 l 617 540 l 385 540 m 231 463 l 231 926 l 309 926 l 309 463 l 231 463 m 694 463 l 694 926 l 771 926 l 771 463 l 694 463 m 0 385 l 0 1003 l 77 1003 l 77 385 l 0 385 m 309 926 l 309 1003 l 694 1003 l 694 926 l 309 926 m 771 385 l 771 463 l 926 463 l 926 1003 l 1003 1003 l 1003 385 l 771 385 m -231 309 l -231 1080 l -154 1080 l -154 309 l -231 309 m 1157 385 l 1157 1080 l 1234 1080 l 1234 385 l 1157 385 m 77 1003 l 77 1157 l 154 1157 l 154 1003 l 77 1003 m 848 1003 l 848 1157 l 926 1157 l 926 1003 l 848 1003 m -154 1080 l -154 1234 l -77 1234 l -77 1080 l -154 1080 m 154 1157 l 154 1234 l 848 1234 l 848 1157 l 154 1157 m 1080 1080 l 1080 1234 l 1157 1234 l 1157 1080 l 1080 1080 m -77 1234 l -77 1389 l 0 1389 l 0 1234 l -77 1234 m 1003 1234 l 1003 1389 l 1080 1389 l 1080 1234 l 1003 1234 m 0 1389 l 0 1466 l 1003 1466 l 1003 1389 l 0 1389 z "},"A":{"ha":1234,"x_min":0,"x_max":1157,"o":"m 617 771 l 617 848 l 540 848 l 540 771 l 617 771 m 385 694 l 385 926 l 463 926 l 463 1003 l 617 1003 l 617 926 l 694 926 l 694 694 l 385 694 m 77 0 l 77 77 l 0 77 l 0 1080 l 77 1080 l 77 154 l 385 154 l 385 540 l 694 540 l 694 154 l 1003 154 l 1003 1080 l 1080 1080 l 1080 1003 l 1157 1003 l 1157 0 l 694 0 l 694 77 l 617 77 l 617 385 l 540 385 l 540 0 l 77 0 m 77 1080 l 77 1157 l 154 1157 l 154 1080 l 77 1080 m 926 1080 l 926 1157 l 1003 1157 l 1003 1080 l 926 1080 m 154 1157 l 154 1234 l 231 1234 l 231 1157 l 154 1157 m 848 1157 l 848 1234 l 926 1234 l 926 1157 l 848 1157 m 231 1234 l 231 1312 l 309 1312 l 309 1234 l 231 1234 m 771 1234 l 771 1312 l 848 1312 l 848 1234 l 771 1234 m 309 1312 l 309 1389 l 771 1389 l 771 1312 l 309 1312 z "},"B":{"ha":1234,"x_min":0,"x_max":1157,"o":"m 385 385 l 385 694 l 617 694 l 617 617 l 694 617 l 694 463 l 617 463 l 617 540 l 540 540 l 540 463 l 617 463 l 617 385 l 385 385 m 385 848 l 385 1157 l 617 1157 l 617 1080 l 694 1080 l 694 926 l 617 926 l 617 1003 l 540 1003 l 540 926 l 617 926 l 617 848 l 385 848 m 926 1157 l 926 1234 l 1003 1234 l 1003 1157 l 926 1157 m 848 1234 l 848 1312 l 926 1312 l 926 1234 l 848 1234 m 77 0 l 77 77 l 0 77 l 0 1389 l 848 1389 l 848 1312 l 77 1312 l 77 154 l 848 154 l 848 231 l 926 231 l 926 309 l 1003 309 l 1003 694 l 926 694 l 926 848 l 1003 848 l 1003 1157 l 1080 1157 l 1080 1080 l 1157 1080 l 1157 771 l 1080 771 l 1080 617 l 1157 617 l 1157 231 l 1080 231 l 1080 154 l 1003 154 l 1003 77 l 926 77 l 926 0 l 77 0 z "},"C":{"ha":1234,"x_min":0,"x_max":1157,"o":"m 154 154 l 154 231 l 231 231 l 231 154 l 154 154 m 77 231 l 77 309 l 154 309 l 154 231 l 77 231 m 617 463 l 617 617 l 694 617 l 694 463 l 617 463 m 309 0 l 309 77 l 231 77 l 231 154 l 848 154 l 848 231 l 926 231 l 926 309 l 1003 309 l 1003 617 l 694 617 l 694 694 l 1080 694 l 1080 617 l 1157 617 l 1157 231 l 1080 231 l 1080 154 l 1003 154 l 1003 77 l 926 77 l 926 0 l 309 0 m 0 309 l 0 1157 l 77 1157 l 77 309 l 0 309 m 463 385 l 463 463 l 385 463 l 385 1080 l 463 1080 l 463 1157 l 617 1157 l 617 1080 l 694 1080 l 694 926 l 617 926 l 617 1003 l 540 1003 l 540 463 l 617 463 l 617 385 l 463 385 m 771 771 l 771 848 l 694 848 l 694 926 l 1003 926 l 1003 1157 l 1080 1157 l 1080 1080 l 1157 1080 l 1157 848 l 1080 848 l 1080 771 l 771 771 m 77 1157 l 77 1234 l 154 1234 l 154 1157 l 77 1157 m 926 1157 l 926 1234 l 1003 1234 l 1003 1157 l 926 1157 m 154 1234 l 154 1312 l 231 1312 l 231 1234 l 154 1234 m 848 1234 l 848 1312 l 926 1312 l 926 1234 l 848 1234 m 231 1312 l 231 1389 l 848 1389 l 848 1312 l 231 1312 z "},"D":{"ha":1234,"x_min":0,"x_max":1157,"o":"m 385 385 l 385 1157 l 617 1157 l 617 1080 l 694 1080 l 694 463 l 617 463 l 617 1003 l 540 1003 l 540 463 l 617 463 l 617 385 l 385 385 m 926 1157 l 926 1234 l 1003 1234 l 1003 1157 l 926 1157 m 848 1234 l 848 1312 l 926 1312 l 926 1234 l 848 1234 m 77 0 l 77 77 l 0 77 l 0 1389 l 848 1389 l 848 1312 l 77 1312 l 77 154 l 848 154 l 848 231 l 926 231 l 926 309 l 1003 309 l 1003 1157 l 1080 1157 l 1080 1080 l 1157 1080 l 1157 231 l 1080 231 l 1080 154 l 1003 154 l 1003 77 l 926 77 l 926 0 l 77 0 z "},"E":{"ha":1234,"x_min":0,"x_max":1157,"o":"m 1003 154 l 1003 463 l 385 463 l 385 617 l 848 617 l 848 848 l 385 848 l 385 1003 l 1003 1003 l 1003 1312 l 77 1312 l 77 154 l 1003 154 m 77 0 l 77 77 l 0 77 l 0 1389 l 1080 1389 l 1080 1312 l 1157 1312 l 1157 848 l 926 848 l 926 771 l 1003 771 l 1003 540 l 1080 540 l 1080 385 l 1157 385 l 1157 0 l 77 0 z "},"F":{"ha":1234,"x_min":0,"x_max":1157,"o":"m 385 154 l 385 617 l 848 617 l 848 848 l 385 848 l 385 1003 l 1003 1003 l 1003 1312 l 77 1312 l 77 154 l 385 154 m 77 0 l 77 77 l 0 77 l 0 1389 l 1080 1389 l 1080 1312 l 1157 1312 l 1157 848 l 926 848 l 926 771 l 1003 771 l 1003 463 l 540 463 l 540 0 l 77 0 z "},"G":{"ha":1234,"x_min":0,"x_max":1157,"o":"m 154 154 l 154 231 l 231 231 l 231 154 l 154 154 m 77 231 l 77 309 l 154 309 l 154 231 l 77 231 m 309 0 l 309 77 l 231 77 l 231 154 l 848 154 l 848 231 l 926 231 l 926 309 l 1003 309 l 1003 694 l 1080 694 l 1080 617 l 1157 617 l 1157 231 l 1080 231 l 1080 154 l 1003 154 l 1003 77 l 926 77 l 926 0 l 309 0 m 0 309 l 0 1157 l 77 1157 l 77 309 l 0 309 m 463 385 l 463 463 l 385 463 l 385 1080 l 463 1080 l 463 1157 l 617 1157 l 617 1080 l 694 1080 l 694 926 l 617 926 l 617 1003 l 540 1003 l 540 771 l 771 771 l 771 848 l 694 848 l 694 926 l 1003 926 l 1003 1157 l 1080 1157 l 1080 1080 l 1157 1080 l 1157 848 l 1080 848 l 1080 771 l 1003 771 l 1003 694 l 540 694 l 540 540 l 694 540 l 694 463 l 617 463 l 617 385 l 463 385 m 77 1157 l 77 1234 l 154 1234 l 154 1157 l 77 1157 m 926 1157 l 926 1234 l 1003 1234 l 1003 1157 l 926 1157 m 154 1234 l 154 1312 l 231 1312 l 231 1234 l 154 1234 m 848 1234 l 848 1312 l 926 1312 l 926 1234 l 848 1234 m 231 1312 l 231 1389 l 848 1389 l 848 1312 l 231 1312 z "},"H":{"ha":1234,"x_min":0,"x_max":1157,"o":"m 1003 154 l 1003 1312 l 694 1312 l 694 926 l 385 926 l 385 1312 l 77 1312 l 77 154 l 385 154 l 385 617 l 694 617 l 694 154 l 1003 154 m 77 0 l 77 77 l 0 77 l 0 1389 l 463 1389 l 463 1312 l 540 1312 l 540 1003 l 617 1003 l 617 1389 l 1080 1389 l 1080 1312 l 1157 1312 l 1157 0 l 694 0 l 694 77 l 617 77 l 617 540 l 540 540 l 540 0 l 77 0 z "},"I":{"ha":617,"x_min":0,"x_max":540,"o":"m 385 154 l 385 1312 l 77 1312 l 77 154 l 385 154 m 77 0 l 77 77 l 0 77 l 0 1389 l 463 1389 l 463 1312 l 540 1312 l 540 0 l 77 0 z "},"J":{"ha":1234,"x_min":0,"x_max":1157,"o":"m 154 154 l 154 231 l 231 231 l 231 154 l 154 154 m 77 231 l 77 309 l 154 309 l 154 231 l 77 231 m 0 309 l 0 617 l 77 617 l 77 309 l 0 309 m 463 385 l 463 463 l 385 463 l 385 617 l 463 617 l 463 540 l 540 540 l 540 463 l 617 463 l 617 385 l 463 385 m 77 617 l 77 694 l 385 694 l 385 617 l 77 617 m 309 0 l 309 77 l 231 77 l 231 154 l 848 154 l 848 231 l 926 231 l 926 309 l 1003 309 l 1003 1312 l 694 1312 l 694 463 l 617 463 l 617 1389 l 1080 1389 l 1080 1312 l 1157 1312 l 1157 231 l 1080 231 l 1080 154 l 1003 154 l 1003 77 l 926 77 l 926 0 l 309 0 z "},"K":{"ha":1234,"x_min":0,"x_max":1157,"o":"m 77 0 l 77 77 l 0 77 l 0 1389 l 463 1389 l 463 1312 l 540 1312 l 540 1234 l 617 1234 l 617 1080 l 540 1080 l 540 926 l 385 926 l 385 1312 l 77 1312 l 77 154 l 385 154 l 385 617 l 540 617 l 540 463 l 617 463 l 617 309 l 540 309 l 540 0 l 77 0 m 694 0 l 694 77 l 617 77 l 617 309 l 694 309 l 694 154 l 1003 154 l 1003 309 l 926 309 l 926 463 l 848 463 l 848 617 l 771 617 l 771 926 l 848 926 l 848 1080 l 926 1080 l 926 1234 l 1003 1234 l 1003 1312 l 694 1312 l 694 1234 l 617 1234 l 617 1389 l 1080 1389 l 1080 1312 l 1157 1312 l 1157 1157 l 1080 1157 l 1080 1003 l 1003 1003 l 1003 848 l 926 848 l 926 540 l 1003 540 l 1003 385 l 1080 385 l 1080 231 l 1157 231 l 1157 0 l 694 0 z "},"L":{"ha":1234,"x_min":0,"x_max":1157,"o":"m 1003 154 l 1003 463 l 385 463 l 385 1312 l 77 1312 l 77 154 l 1003 154 m 77 0 l 77 77 l 0 77 l 0 1389 l 463 1389 l 463 1312 l 540 1312 l 540 540 l 1080 540 l 1080 385 l 1157 385 l 1157 0 l 77 0 z "},"M":{"ha":1389,"x_min":0,"x_max":1312,"o":"m 540 926 l 540 1080 l 694 1080 l 694 926 l 540 926 m 463 1080 l 463 1234 l 540 1234 l 540 1080 l 463 1080 m 694 1080 l 694 1234 l 771 1234 l 771 1080 l 694 1080 m 77 0 l 77 77 l 0 77 l 0 1389 l 463 1389 l 463 1234 l 385 1234 l 385 1312 l 77 1312 l 77 154 l 385 154 l 385 848 l 463 848 l 463 694 l 540 694 l 540 540 l 694 540 l 694 694 l 771 694 l 771 848 l 848 848 l 848 154 l 1157 154 l 1157 1312 l 848 1312 l 848 1234 l 771 1234 l 771 1389 l 1234 1389 l 1234 1312 l 1312 1312 l 1312 0 l 848 0 l 848 77 l 771 77 l 771 385 l 540 385 l 540 0 l 77 0 z "},"N":{"ha":1234,"x_min":0,"x_max":1157,"o":"m 463 1080 l 463 1234 l 540 1234 l 540 1080 l 463 1080 m 77 0 l 77 77 l 0 77 l 0 1389 l 463 1389 l 463 1234 l 385 1234 l 385 1312 l 77 1312 l 77 154 l 385 154 l 385 848 l 463 848 l 463 694 l 540 694 l 540 540 l 617 540 l 617 385 l 694 385 l 694 154 l 1003 154 l 1003 1312 l 694 1312 l 694 771 l 617 771 l 617 926 l 540 926 l 540 1080 l 617 1080 l 617 1389 l 1080 1389 l 1080 1312 l 1157 1312 l 1157 0 l 694 0 l 694 77 l 617 77 l 617 309 l 540 309 l 540 0 l 77 0 z "},"O":{"ha":1234,"x_min":0,"x_max":1157,"o":"m 154 154 l 154 231 l 231 231 l 231 154 l 154 154 m 77 231 l 77 309 l 154 309 l 154 231 l 77 231 m 0 309 l 0 1157 l 77 1157 l 77 309 l 0 309 m 463 385 l 463 463 l 385 463 l 385 1080 l 463 1080 l 463 1157 l 617 1157 l 617 1080 l 694 1080 l 694 463 l 617 463 l 617 1003 l 540 1003 l 540 463 l 617 463 l 617 385 l 463 385 m 309 0 l 309 77 l 231 77 l 231 154 l 848 154 l 848 231 l 926 231 l 926 309 l 1003 309 l 1003 1157 l 1080 1157 l 1080 1080 l 1157 1080 l 1157 231 l 1080 231 l 1080 154 l 1003 154 l 1003 77 l 926 77 l 926 0 l 309 0 m 77 1157 l 77 1234 l 154 1234 l 154 1157 l 77 1157 m 926 1157 l 926 1234 l 1003 1234 l 1003 1157 l 926 1157 m 154 1234 l 154 1312 l 231 1312 l 231 1234 l 154 1234 m 848 1234 l 848 1312 l 926 1312 l 926 1234 l 848 1234 m 231 1312 l 231 1389 l 848 1389 l 848 1312 l 231 1312 z "},"P":{"ha":1234,"x_min":0,"x_max":1157,"o":"m 385 771 l 385 1157 l 617 1157 l 617 1080 l 694 1080 l 694 848 l 617 848 l 617 1003 l 540 1003 l 540 848 l 617 848 l 617 771 l 385 771 m 926 1157 l 926 1234 l 1003 1234 l 1003 1157 l 926 1157 m 848 1234 l 848 1312 l 926 1312 l 926 1234 l 848 1234 m 77 0 l 77 77 l 0 77 l 0 1389 l 848 1389 l 848 1312 l 77 1312 l 77 154 l 385 154 l 385 617 l 848 617 l 848 694 l 926 694 l 926 771 l 1003 771 l 1003 1157 l 1080 1157 l 1080 1080 l 1157 1080 l 1157 694 l 1080 694 l 1080 617 l 1003 617 l 1003 540 l 926 540 l 926 463 l 540 463 l 540 0 l 77 0 z "},"Q":{"ha":1312,"x_min":0,"x_max":1234,"o":"m 154 154 l 154 231 l 231 231 l 231 154 l 154 154 m 77 231 l 77 309 l 154 309 l 154 231 l 77 231 m 617 463 l 617 1003 l 540 1003 l 540 463 l 617 463 m 0 309 l 0 1157 l 77 1157 l 77 309 l 0 309 m 463 385 l 463 463 l 385 463 l 385 1080 l 463 1080 l 463 1157 l 617 1157 l 617 1080 l 694 1080 l 694 385 l 463 385 m 309 0 l 309 77 l 231 77 l 231 154 l 1080 154 l 1080 385 l 1003 385 l 1003 1157 l 1080 1157 l 1080 1080 l 1157 1080 l 1157 309 l 1234 309 l 1234 0 l 309 0 m 77 1157 l 77 1234 l 154 1234 l 154 1157 l 77 1157 m 926 1157 l 926 1234 l 1003 1234 l 1003 1157 l 926 1157 m 154 1234 l 154 1312 l 231 1312 l 231 1234 l 154 1234 m 848 1234 l 848 1312 l 926 1312 l 926 1234 l 848 1234 m 231 1312 l 231 1389 l 848 1389 l 848 1312 l 231 1312 z "},"R":{"ha":1234,"x_min":0,"x_max":1157,"o":"m 385 771 l 385 1157 l 617 1157 l 617 1080 l 694 1080 l 694 848 l 617 848 l 617 1003 l 540 1003 l 540 848 l 617 848 l 617 771 l 385 771 m 694 0 l 694 77 l 617 77 l 617 309 l 694 309 l 694 154 l 1003 154 l 1003 309 l 926 309 l 926 463 l 848 463 l 848 694 l 926 694 l 926 771 l 1003 771 l 1003 1157 l 1080 1157 l 1080 1080 l 1157 1080 l 1157 694 l 1080 694 l 1080 617 l 1003 617 l 1003 385 l 1080 385 l 1080 231 l 1157 231 l 1157 0 l 694 0 m 926 1157 l 926 1234 l 1003 1234 l 1003 1157 l 926 1157 m 848 1234 l 848 1312 l 926 1312 l 926 1234 l 848 1234 m 77 0 l 77 77 l 0 77 l 0 1389 l 848 1389 l 848 1312 l 77 1312 l 77 154 l 385 154 l 385 617 l 540 617 l 540 463 l 617 463 l 617 309 l 540 309 l 540 0 l 77 0 z "},"S":{"ha":1234,"x_min":0,"x_max":1157,"o":"m 154 154 l 154 231 l 231 231 l 231 154 l 154 154 m 77 231 l 77 309 l 154 309 l 154 231 l 77 231 m 463 385 l 463 463 l 617 463 l 617 385 l 463 385 m 0 309 l 0 540 l 77 540 l 77 309 l 0 309 m 385 463 l 385 540 l 463 540 l 463 463 l 385 463 m 617 463 l 617 617 l 694 617 l 694 463 l 617 463 m 309 0 l 309 77 l 231 77 l 231 154 l 848 154 l 848 231 l 926 231 l 926 309 l 1003 309 l 1003 694 l 1080 694 l 1080 617 l 1157 617 l 1157 231 l 1080 231 l 1080 154 l 1003 154 l 1003 77 l 926 77 l 926 0 l 309 0 m 77 540 l 77 617 l 309 617 l 309 694 l 231 694 l 231 771 l 540 771 l 540 694 l 617 694 l 617 617 l 385 617 l 385 540 l 77 540 m 926 694 l 926 771 l 1003 771 l 1003 694 l 926 694 m 154 771 l 154 848 l 231 848 l 231 771 l 154 771 m 848 771 l 848 848 l 926 848 l 926 771 l 848 771 m 77 848 l 77 926 l 154 926 l 154 848 l 77 848 m 771 926 l 771 1003 l 540 1003 l 540 926 l 771 926 m 0 926 l 0 1157 l 77 1157 l 77 926 l 0 926 m 77 1157 l 77 1234 l 154 1234 l 154 1157 l 77 1157 m 463 848 l 463 926 l 385 926 l 385 1080 l 463 1080 l 463 1157 l 694 1157 l 694 1080 l 1003 1080 l 1003 1234 l 1080 1234 l 1080 1157 l 1157 1157 l 1157 1003 l 1080 1003 l 1080 926 l 848 926 l 848 848 l 463 848 m 154 1234 l 154 1312 l 231 1312 l 231 1234 l 154 1234 m 926 1234 l 926 1312 l 1003 1312 l 1003 1234 l 926 1234 m 231 1312 l 231 1389 l 926 1389 l 926 1312 l 231 1312 z "},"T":{"ha":1234,"x_min":0,"x_max":1157,"o":"m 694 154 l 694 1003 l 1003 1003 l 1003 1312 l 77 1312 l 77 1003 l 385 1003 l 385 154 l 694 154 m 385 0 l 385 77 l 309 77 l 309 926 l 0 926 l 0 1389 l 1080 1389 l 1080 1312 l 1157 1312 l 1157 848 l 848 848 l 848 0 l 385 0 z "},"U":{"ha":1234,"x_min":0,"x_max":1157,"o":"m 154 154 l 154 231 l 231 231 l 231 154 l 154 154 m 77 231 l 77 309 l 154 309 l 154 231 l 77 231 m 0 309 l 0 1389 l 463 1389 l 463 1312 l 540 1312 l 540 463 l 617 463 l 617 385 l 463 385 l 463 463 l 385 463 l 385 1312 l 77 1312 l 77 309 l 0 309 m 309 0 l 309 77 l 231 77 l 231 154 l 848 154 l 848 231 l 926 231 l 926 309 l 1003 309 l 1003 1312 l 694 1312 l 694 463 l 617 463 l 617 1389 l 1080 1389 l 1080 1312 l 1157 1312 l 1157 231 l 1080 231 l 1080 154 l 1003 154 l 1003 77 l 926 77 l 926 0 l 309 0 z "},"V":{"ha":1234,"x_min":0,"x_max":1157,"o":"m 231 154 l 231 309 l 309 309 l 309 154 l 231 154 m 154 309 l 154 463 l 231 463 l 231 309 l 154 309 m 77 463 l 77 617 l 154 617 l 154 463 l 77 463 m 463 463 l 463 617 l 385 617 l 385 1312 l 77 1312 l 77 617 l 0 617 l 0 1389 l 463 1389 l 463 1312 l 540 1312 l 540 617 l 617 617 l 617 463 l 463 463 m 385 0 l 385 77 l 309 77 l 309 154 l 771 154 l 771 309 l 848 309 l 848 463 l 926 463 l 926 617 l 1003 617 l 1003 1312 l 694 1312 l 694 617 l 617 617 l 617 1389 l 1080 1389 l 1080 1312 l 1157 1312 l 1157 540 l 1080 540 l 1080 385 l 1003 385 l 1003 231 l 926 231 l 926 77 l 848 77 l 848 0 l 385 0 z "},"W":{"ha":1389,"x_min":0,"x_max":1312,"o":"m 77 0 l 77 77 l 0 77 l 0 1389 l 463 1389 l 463 1312 l 540 1312 l 540 1003 l 694 1003 l 694 926 l 540 926 l 540 771 l 463 771 l 463 617 l 385 617 l 385 1312 l 77 1312 l 77 154 l 385 154 l 385 231 l 463 231 l 463 385 l 540 385 l 540 540 l 694 540 l 694 385 l 771 385 l 771 231 l 694 231 l 694 309 l 617 309 l 617 154 l 540 154 l 540 0 l 77 0 m 848 0 l 848 77 l 771 77 l 771 231 l 848 231 l 848 154 l 1157 154 l 1157 1312 l 848 1312 l 848 617 l 771 617 l 771 771 l 694 771 l 694 926 l 771 926 l 771 1389 l 1234 1389 l 1234 1312 l 1312 1312 l 1312 0 l 848 0 z "},"X":{"ha":1234,"x_min":0,"x_max":1157,"o":"m 77 309 l 77 463 l 154 463 l 154 309 l 77 309 m 77 0 l 77 77 l 0 77 l 0 309 l 77 309 l 77 154 l 385 154 l 385 309 l 463 309 l 463 463 l 617 463 l 617 309 l 540 309 l 540 0 l 77 0 m 154 463 l 154 617 l 231 617 l 231 463 l 154 463 m 231 617 l 231 848 l 309 848 l 309 617 l 231 617 m 154 848 l 154 1003 l 231 1003 l 231 848 l 154 848 m 77 1003 l 77 1157 l 154 1157 l 154 1003 l 77 1003 m 463 1003 l 463 1157 l 385 1157 l 385 1312 l 77 1312 l 77 1157 l 0 1157 l 0 1389 l 463 1389 l 463 1312 l 540 1312 l 540 1157 l 617 1157 l 617 1003 l 463 1003 m 694 0 l 694 77 l 617 77 l 617 309 l 694 309 l 694 154 l 1003 154 l 1003 309 l 926 309 l 926 463 l 848 463 l 848 617 l 771 617 l 771 848 l 848 848 l 848 1003 l 926 1003 l 926 1157 l 1003 1157 l 1003 1312 l 694 1312 l 694 1157 l 617 1157 l 617 1389 l 1080 1389 l 1080 1312 l 1157 1312 l 1157 1080 l 1080 1080 l 1080 926 l 1003 926 l 1003 771 l 926 771 l 926 540 l 1003 540 l 1003 385 l 1080 385 l 1080 231 l 1157 231 l 1157 0 l 694 0 z "},"Y":{"ha":1234,"x_min":0,"x_max":1157,"o":"m 231 694 l 231 848 l 309 848 l 309 694 l 231 694 m 154 848 l 154 1003 l 231 1003 l 231 848 l 154 848 m 77 1003 l 77 1157 l 154 1157 l 154 1003 l 77 1003 m 463 1003 l 463 1157 l 385 1157 l 385 1312 l 77 1312 l 77 1157 l 0 1157 l 0 1389 l 463 1389 l 463 1312 l 540 1312 l 540 1157 l 617 1157 l 617 1003 l 463 1003 m 385 0 l 385 77 l 309 77 l 309 694 l 385 694 l 385 154 l 694 154 l 694 694 l 771 694 l 771 848 l 848 848 l 848 1003 l 926 1003 l 926 1157 l 1003 1157 l 1003 1312 l 694 1312 l 694 1157 l 617 1157 l 617 1389 l 1080 1389 l 1080 1312 l 1157 1312 l 1157 1080 l 1080 1080 l 1080 926 l 1003 926 l 1003 771 l 926 771 l 926 617 l 848 617 l 848 0 l 385 0 z "},"Z":{"ha":1234,"x_min":0,"x_max":1157,"o":"m 77 463 l 77 540 l 154 540 l 154 463 l 77 463 m 154 540 l 154 617 l 231 617 l 231 540 l 154 540 m 231 617 l 231 694 l 309 694 l 309 617 l 231 617 m 309 694 l 309 771 l 385 771 l 385 694 l 309 694 m 385 771 l 385 848 l 463 848 l 463 771 l 385 771 m 77 0 l 77 77 l 0 77 l 0 463 l 77 463 l 77 154 l 1003 154 l 1003 463 l 463 463 l 463 540 l 540 540 l 540 617 l 617 617 l 617 694 l 694 694 l 694 771 l 771 771 l 771 848 l 848 848 l 848 926 l 926 926 l 926 1003 l 1003 1003 l 1003 1312 l 77 1312 l 77 1003 l 617 1003 l 617 926 l 540 926 l 540 848 l 463 848 l 463 926 l 0 926 l 0 1389 l 1080 1389 l 1080 1312 l 1157 1312 l 1157 926 l 1080 926 l 1080 848 l 1003 848 l 1003 771 l 926 771 l 926 694 l 848 694 l 848 617 l 771 617 l 771 540 l 1080 540 l 1080 463 l 1157 463 l 1157 0 l 77 0 z "},"a":{"ha":1234,"x_min":0,"x_max":1080,"o":"m 385 694 l 385 926 l 463 926 l 463 771 l 617 771 l 617 926 l 694 926 l 694 694 l 385 694 m 463 926 l 463 1003 l 617 1003 l 617 926 l 463 926 m 0 77 l 0 1080 l 77 1080 l 77 154 l 385 154 l 385 540 l 694 540 l 694 154 l 1003 154 l 1003 1080 l 1080 1080 l 1080 77 l 617 77 l 617 463 l 463 463 l 463 77 l 0 77 m 77 1080 l 77 1157 l 154 1157 l 154 1080 l 77 1080 m 926 1080 l 926 1157 l 1003 1157 l 1003 1080 l 926 1080 m 154 1157 l 154 1234 l 231 1234 l 231 1157 l 154 1157 m 848 1157 l 848 1234 l 926 1234 l 926 1157 l 848 1157 m 231 1234 l 231 1312 l 309 1312 l 309 1234 l 231 1234 m 771 1234 l 771 1312 l 848 1312 l 848 1234 l 771 1234 m 309 1312 l 309 1389 l 771 1389 l 771 1312 l 309 1312 z "},"b":{"ha":1234,"x_min":0,"x_max":1080,"o":"m 848 154 l 848 231 l 926 231 l 926 154 l 848 154 m 926 231 l 926 309 l 1003 309 l 1003 231 l 926 231 m 617 463 l 617 617 l 694 617 l 694 463 l 617 463 m 385 385 l 385 694 l 617 694 l 617 617 l 463 617 l 463 463 l 617 463 l 617 385 l 385 385 m 1003 309 l 1003 694 l 1080 694 l 1080 309 l 1003 309 m 926 694 l 926 848 l 1003 848 l 1003 694 l 926 694 m 617 926 l 617 1080 l 694 1080 l 694 926 l 617 926 m 385 848 l 385 1157 l 617 1157 l 617 1080 l 463 1080 l 463 926 l 617 926 l 617 848 l 385 848 m 1003 848 l 1003 1157 l 1080 1157 l 1080 848 l 1003 848 m 926 1157 l 926 1234 l 1003 1234 l 1003 1157 l 926 1157 m 848 1234 l 848 1312 l 926 1312 l 926 1234 l 848 1234 m 0 77 l 0 1389 l 848 1389 l 848 1312 l 77 1312 l 77 154 l 848 154 l 848 77 l 0 77 z "},"c":{"ha":1234,"x_min":0,"x_max":1080,"o":"m 231 77 l 231 154 l 848 154 l 848 77 l 231 77 m 154 154 l 154 231 l 231 231 l 231 154 l 154 154 m 848 154 l 848 231 l 926 231 l 926 154 l 848 154 m 77 231 l 77 309 l 154 309 l 154 231 l 77 231 m 926 231 l 926 309 l 1003 309 l 1003 231 l 926 231 m 463 385 l 463 463 l 617 463 l 617 385 l 463 385 m 617 463 l 617 617 l 694 617 l 694 463 l 617 463 m 1003 309 l 1003 617 l 1080 617 l 1080 309 l 1003 309 m 694 617 l 694 694 l 1003 694 l 1003 617 l 694 617 m 694 848 l 694 926 l 1003 926 l 1003 848 l 694 848 m 385 463 l 385 1080 l 463 1080 l 463 463 l 385 463 m 617 926 l 617 1080 l 694 1080 l 694 926 l 617 926 m 0 309 l 0 1157 l 77 1157 l 77 309 l 0 309 m 463 1080 l 463 1157 l 617 1157 l 617 1080 l 463 1080 m 1003 926 l 1003 1157 l 1080 1157 l 1080 926 l 1003 926 m 77 1157 l 77 1234 l 154 1234 l 154 1157 l 77 1157 m 926 1157 l 926 1234 l 1003 1234 l 1003 1157 l 926 1157 m 154 1234 l 154 1312 l 231 1312 l 231 1234 l 154 1234 m 848 1234 l 848 1312 l 926 1312 l 926 1234 l 848 1234 m 231 1312 l 231 1389 l 848 1389 l 848 1312 l 231 1312 z "},"d":{"ha":1234,"x_min":0,"x_max":1080,"o":"m 848 154 l 848 231 l 926 231 l 926 154 l 848 154 m 926 231 l 926 309 l 1003 309 l 1003 231 l 926 231 m 617 463 l 617 1080 l 694 1080 l 694 463 l 617 463 m 385 385 l 385 1157 l 617 1157 l 617 1080 l 463 1080 l 463 463 l 617 463 l 617 385 l 385 385 m 1003 309 l 1003 1157 l 1080 1157 l 1080 309 l 1003 309 m 926 1157 l 926 1234 l 1003 1234 l 1003 1157 l 926 1157 m 848 1234 l 848 1312 l 926 1312 l 926 1234 l 848 1234 m 0 77 l 0 1389 l 848 1389 l 848 1312 l 77 1312 l 77 154 l 848 154 l 848 77 l 0 77 z "},"e":{"ha":1234,"x_min":0,"x_max":1080,"o":"m 1003 154 l 1003 463 l 385 463 l 385 617 l 848 617 l 848 848 l 385 848 l 385 1003 l 1003 1003 l 1003 1312 l 77 1312 l 77 154 l 1003 154 m 0 77 l 0 1389 l 1080 1389 l 1080 848 l 926 848 l 926 540 l 1080 540 l 1080 77 l 0 77 z "},"f":{"ha":1234,"x_min":0,"x_max":1080,"o":"m 385 154 l 385 617 l 848 617 l 848 848 l 385 848 l 385 1003 l 1003 1003 l 1003 1312 l 77 1312 l 77 154 l 385 154 m 0 77 l 0 1389 l 1080 1389 l 1080 848 l 926 848 l 926 540 l 463 540 l 463 77 l 0 77 z "},"g":{"ha":1234,"x_min":0,"x_max":1080,"o":"m 231 77 l 231 154 l 848 154 l 848 77 l 231 77 m 154 154 l 154 231 l 231 231 l 231 154 l 154 154 m 848 154 l 848 231 l 926 231 l 926 154 l 848 154 m 77 231 l 77 309 l 154 309 l 154 231 l 77 231 m 926 231 l 926 309 l 1003 309 l 1003 231 l 926 231 m 1003 309 l 1003 694 l 1080 694 l 1080 309 l 1003 309 m 694 848 l 694 926 l 1003 926 l 1003 848 l 694 848 m 463 385 l 463 463 l 385 463 l 385 1080 l 463 1080 l 463 771 l 1003 771 l 1003 694 l 540 694 l 540 540 l 694 540 l 694 463 l 617 463 l 617 385 l 463 385 m 617 926 l 617 1080 l 694 1080 l 694 926 l 617 926 m 0 309 l 0 1157 l 77 1157 l 77 309 l 0 309 m 463 1080 l 463 1157 l 617 1157 l 617 1080 l 463 1080 m 1003 926 l 1003 1157 l 1080 1157 l 1080 926 l 1003 926 m 77 1157 l 77 1234 l 154 1234 l 154 1157 l 77 1157 m 926 1157 l 926 1234 l 1003 1234 l 1003 1157 l 926 1157 m 154 1234 l 154 1312 l 231 1312 l 231 1234 l 154 1234 m 848 1234 l 848 1312 l 926 1312 l 926 1234 l 848 1234 m 231 1312 l 231 1389 l 848 1389 l 848 1312 l 231 1312 z "},"h":{"ha":1234,"x_min":0,"x_max":1080,"o":"m 1003 154 l 1003 1312 l 694 1312 l 694 926 l 385 926 l 385 1312 l 77 1312 l 77 154 l 385 154 l 385 617 l 694 617 l 694 154 l 1003 154 m 0 77 l 0 1389 l 463 1389 l 463 1003 l 617 1003 l 617 1389 l 1080 1389 l 1080 77 l 617 77 l 617 540 l 463 540 l 463 77 l 0 77 z "},"i":{"ha":617,"x_min":0,"x_max":463,"o":"m 385 154 l 385 1312 l 77 1312 l 77 154 l 385 154 m 0 77 l 0 1389 l 463 1389 l 463 77 l 0 77 z "},"j":{"ha":1234,"x_min":0,"x_max":1080,"o":"m 231 77 l 231 154 l 848 154 l 848 77 l 231 77 m 154 154 l 154 231 l 231 231 l 231 154 l 154 154 m 848 154 l 848 231 l 926 231 l 926 154 l 848 154 m 77 231 l 77 309 l 154 309 l 154 231 l 77 231 m 926 231 l 926 309 l 1003 309 l 1003 231 l 926 231 m 463 385 l 463 463 l 617 463 l 617 385 l 463 385 m 0 309 l 0 617 l 77 617 l 77 309 l 0 309 m 385 463 l 385 617 l 463 617 l 463 463 l 385 463 m 77 617 l 77 694 l 385 694 l 385 617 l 77 617 m 1003 309 l 1003 1312 l 694 1312 l 694 463 l 617 463 l 617 1389 l 1080 1389 l 1080 309 l 1003 309 z "},"k":{"ha":1234,"x_min":0,"x_max":1080,"o":"m 617 77 l 617 309 l 694 309 l 694 154 l 1003 154 l 1003 309 l 1080 309 l 1080 77 l 617 77 m 540 309 l 540 463 l 617 463 l 617 309 l 540 309 m 926 309 l 926 463 l 1003 463 l 1003 309 l 926 309 m 848 463 l 848 617 l 926 617 l 926 463 l 848 463 m 771 617 l 771 926 l 848 926 l 848 617 l 771 617 m 848 926 l 848 1080 l 926 1080 l 926 926 l 848 926 m 540 1080 l 540 1234 l 617 1234 l 617 1080 l 540 1080 m 926 1080 l 926 1234 l 1003 1234 l 1003 1080 l 926 1080 m 0 77 l 0 1389 l 463 1389 l 463 1080 l 540 1080 l 540 926 l 385 926 l 385 1312 l 77 1312 l 77 154 l 385 154 l 385 617 l 540 617 l 540 463 l 463 463 l 463 77 l 0 77 m 617 1234 l 617 1389 l 1080 1389 l 1080 1234 l 1003 1234 l 1003 1312 l 694 1312 l 694 1234 l 617 1234 z "},"l":{"ha":1234,"x_min":0,"x_max":1080,"o":"m 1003 154 l 1003 463 l 385 463 l 385 1312 l 77 1312 l 77 154 l 1003 154 m 0 77 l 0 1389 l 463 1389 l 463 540 l 1080 540 l 1080 77 l 0 77 z "},"m":{"ha":1389,"x_min":0,"x_max":1234,"o":"m 540 463 l 540 540 l 694 540 l 694 463 l 540 463 m 540 926 l 540 1080 l 694 1080 l 694 926 l 540 926 m 463 1080 l 463 1234 l 540 1234 l 540 1080 l 463 1080 m 694 1080 l 694 1234 l 771 1234 l 771 1080 l 694 1080 m 0 77 l 0 1389 l 463 1389 l 463 1234 l 385 1234 l 385 1312 l 77 1312 l 77 154 l 385 154 l 385 848 l 463 848 l 463 694 l 540 694 l 540 540 l 463 540 l 463 77 l 0 77 m 771 77 l 771 540 l 694 540 l 694 694 l 771 694 l 771 848 l 848 848 l 848 154 l 1157 154 l 1157 1312 l 848 1312 l 848 1234 l 771 1234 l 771 1389 l 1234 1389 l 1234 77 l 771 77 z "},"n":{"ha":1234,"x_min":0,"x_max":1080,"o":"m 540 385 l 540 540 l 617 540 l 617 385 l 540 385 m 463 1080 l 463 1234 l 540 1234 l 540 1080 l 463 1080 m 0 77 l 0 1389 l 463 1389 l 463 1234 l 385 1234 l 385 1312 l 77 1312 l 77 154 l 385 154 l 385 848 l 463 848 l 463 694 l 540 694 l 540 540 l 463 540 l 463 77 l 0 77 m 617 77 l 617 385 l 694 385 l 694 154 l 1003 154 l 1003 1312 l 694 1312 l 694 771 l 617 771 l 617 926 l 540 926 l 540 1080 l 617 1080 l 617 1389 l 1080 1389 l 1080 77 l 617 77 z "},"o":{"ha":1234,"x_min":0,"x_max":1080,"o":"m 231 77 l 231 154 l 848 154 l 848 77 l 231 77 m 154 154 l 154 231 l 231 231 l 231 154 l 154 154 m 848 154 l 848 231 l 926 231 l 926 154 l 848 154 m 77 231 l 77 309 l 154 309 l 154 231 l 77 231 m 926 231 l 926 309 l 1003 309 l 1003 231 l 926 231 m 463 385 l 463 463 l 617 463 l 617 385 l 463 385 m 385 463 l 385 1080 l 463 1080 l 463 463 l 385 463 m 617 463 l 617 1080 l 694 1080 l 694 463 l 617 463 m 0 309 l 0 1157 l 77 1157 l 77 309 l 0 309 m 463 1080 l 463 1157 l 617 1157 l 617 1080 l 463 1080 m 1003 309 l 1003 1157 l 1080 1157 l 1080 309 l 1003 309 m 77 1157 l 77 1234 l 154 1234 l 154 1157 l 77 1157 m 926 1157 l 926 1234 l 1003 1234 l 1003 1157 l 926 1157 m 154 1234 l 154 1312 l 231 1312 l 231 1234 l 154 1234 m 848 1234 l 848 1312 l 926 1312 l 926 1234 l 848 1234 m 231 1312 l 231 1389 l 848 1389 l 848 1312 l 231 1312 z "},"p":{"ha":1234,"x_min":0,"x_max":1080,"o":"m 848 617 l 848 694 l 926 694 l 926 617 l 848 617 m 926 694 l 926 771 l 1003 771 l 1003 694 l 926 694 m 617 848 l 617 1080 l 694 1080 l 694 848 l 617 848 m 385 771 l 385 1157 l 617 1157 l 617 1080 l 463 1080 l 463 848 l 617 848 l 617 771 l 385 771 m 1003 771 l 1003 1157 l 1080 1157 l 1080 771 l 1003 771 m 926 1157 l 926 1234 l 1003 1234 l 1003 1157 l 926 1157 m 848 1234 l 848 1312 l 926 1312 l 926 1234 l 848 1234 m 0 77 l 0 1389 l 848 1389 l 848 1312 l 77 1312 l 77 154 l 385 154 l 385 617 l 848 617 l 848 540 l 463 540 l 463 77 l 0 77 z "},"q":{"ha":1312,"x_min":0,"x_max":1157,"o":"m 154 154 l 154 231 l 231 231 l 231 154 l 154 154 m 77 231 l 77 309 l 154 309 l 154 231 l 77 231 m 231 77 l 231 154 l 1080 154 l 1080 385 l 1157 385 l 1157 77 l 231 77 m 385 463 l 385 1080 l 463 1080 l 463 463 l 385 463 m 463 385 l 463 463 l 617 463 l 617 1080 l 694 1080 l 694 385 l 463 385 m 0 309 l 0 1157 l 77 1157 l 77 309 l 0 309 m 463 1080 l 463 1157 l 617 1157 l 617 1080 l 463 1080 m 1003 385 l 1003 1157 l 1080 1157 l 1080 385 l 1003 385 m 77 1157 l 77 1234 l 154 1234 l 154 1157 l 77 1157 m 926 1157 l 926 1234 l 1003 1234 l 1003 1157 l 926 1157 m 154 1234 l 154 1312 l 231 1312 l 231 1234 l 154 1234 m 848 1234 l 848 1312 l 926 1312 l 926 1234 l 848 1234 m 231 1312 l 231 1389 l 848 1389 l 848 1312 l 231 1312 z "},"r":{"ha":1234,"x_min":0,"x_max":1080,"o":"m 617 77 l 617 309 l 694 309 l 694 154 l 1003 154 l 1003 309 l 1080 309 l 1080 77 l 617 77 m 540 309 l 540 463 l 617 463 l 617 309 l 540 309 m 926 309 l 926 463 l 1003 463 l 1003 309 l 926 309 m 848 463 l 848 694 l 926 694 l 926 463 l 848 463 m 926 694 l 926 771 l 1003 771 l 1003 694 l 926 694 m 617 848 l 617 1080 l 694 1080 l 694 848 l 617 848 m 385 771 l 385 1157 l 617 1157 l 617 1080 l 463 1080 l 463 848 l 617 848 l 617 771 l 385 771 m 1003 771 l 1003 1157 l 1080 1157 l 1080 771 l 1003 771 m 926 1157 l 926 1234 l 1003 1234 l 1003 1157 l 926 1157 m 848 1234 l 848 1312 l 926 1312 l 926 1234 l 848 1234 m 0 77 l 0 1389 l 848 1389 l 848 1312 l 77 1312 l 77 154 l 385 154 l 385 617 l 540 617 l 540 463 l 463 463 l 463 77 l 0 77 z "},"s":{"ha":1234,"x_min":0,"x_max":1080,"o":"m 231 77 l 231 154 l 848 154 l 848 77 l 231 77 m 154 154 l 154 231 l 231 231 l 231 154 l 154 154 m 848 154 l 848 231 l 926 231 l 926 154 l 848 154 m 77 231 l 77 309 l 154 309 l 154 231 l 77 231 m 926 231 l 926 309 l 1003 309 l 1003 231 l 926 231 m 463 385 l 463 463 l 617 463 l 617 385 l 463 385 m 0 309 l 0 540 l 77 540 l 77 309 l 0 309 m 385 463 l 385 540 l 463 540 l 463 463 l 385 463 m 77 540 l 77 617 l 385 617 l 385 540 l 77 540 m 617 463 l 617 617 l 694 617 l 694 463 l 617 463 m 540 617 l 540 694 l 617 694 l 617 617 l 540 617 m 1003 309 l 1003 694 l 1080 694 l 1080 309 l 1003 309 m 231 694 l 231 771 l 540 771 l 540 694 l 231 694 m 926 694 l 926 771 l 1003 771 l 1003 694 l 926 694 m 154 771 l 154 848 l 231 848 l 231 771 l 154 771 m 848 771 l 848 848 l 926 848 l 926 771 l 848 771 m 77 848 l 77 926 l 154 926 l 154 848 l 77 848 m 463 848 l 463 926 l 848 926 l 848 848 l 463 848 m 385 926 l 385 1080 l 463 1080 l 463 926 l 385 926 m 694 1003 l 694 1080 l 1003 1080 l 1003 1003 l 694 1003 m 0 926 l 0 1157 l 77 1157 l 77 926 l 0 926 m 463 1080 l 463 1157 l 694 1157 l 694 1080 l 463 1080 m 77 1157 l 77 1234 l 154 1234 l 154 1157 l 77 1157 m 1003 1080 l 1003 1234 l 1080 1234 l 1080 1080 l 1003 1080 m 154 1234 l 154 1312 l 231 1312 l 231 1234 l 154 1234 m 926 1234 l 926 1312 l 1003 1312 l 1003 1234 l 926 1234 m 231 1312 l 231 1389 l 926 1389 l 926 1312 l 231 1312 z "},"t":{"ha":1234,"x_min":0,"x_max":1080,"o":"m 694 154 l 694 1003 l 1003 1003 l 1003 1312 l 77 1312 l 77 1003 l 385 1003 l 385 154 l 694 154 m 309 77 l 309 926 l 0 926 l 0 1389 l 1080 1389 l 1080 926 l 771 926 l 771 77 l 309 77 z "},"u":{"ha":1234,"x_min":0,"x_max":1080,"o":"m 231 77 l 231 154 l 848 154 l 848 77 l 231 77 m 154 154 l 154 231 l 231 231 l 231 154 l 154 154 m 848 154 l 848 231 l 926 231 l 926 154 l 848 154 m 77 231 l 77 309 l 154 309 l 154 231 l 77 231 m 926 231 l 926 309 l 1003 309 l 1003 231 l 926 231 m 463 385 l 463 463 l 617 463 l 617 385 l 463 385 m 0 309 l 0 1389 l 463 1389 l 463 463 l 385 463 l 385 1312 l 77 1312 l 77 309 l 0 309 m 1003 309 l 1003 1312 l 694 1312 l 694 463 l 617 463 l 617 1389 l 1080 1389 l 1080 309 l 1003 309 z "},"v":{"ha":1234,"x_min":0,"x_max":1080,"o":"m 231 154 l 231 309 l 309 309 l 309 154 l 231 154 m 309 77 l 309 154 l 771 154 l 771 309 l 848 309 l 848 77 l 309 77 m 154 309 l 154 463 l 231 463 l 231 309 l 154 309 m 848 309 l 848 463 l 926 463 l 926 309 l 848 309 m 77 463 l 77 617 l 154 617 l 154 463 l 77 463 m 463 463 l 463 617 l 617 617 l 617 463 l 463 463 m 926 463 l 926 617 l 1003 617 l 1003 463 l 926 463 m 0 617 l 0 1389 l 463 1389 l 463 617 l 385 617 l 385 1312 l 77 1312 l 77 617 l 0 617 m 617 617 l 617 1389 l 1080 1389 l 1080 617 l 1003 617 l 1003 1312 l 694 1312 l 694 617 l 617 617 z "},"w":{"ha":1389,"x_min":0,"x_max":1234,"o":"m 463 231 l 463 385 l 540 385 l 540 540 l 694 540 l 694 385 l 771 385 l 771 231 l 694 231 l 694 309 l 540 309 l 540 231 l 463 231 m 540 926 l 540 1003 l 694 1003 l 694 926 l 540 926 m 0 77 l 0 1389 l 463 1389 l 463 926 l 540 926 l 540 771 l 463 771 l 463 617 l 385 617 l 385 1312 l 77 1312 l 77 154 l 385 154 l 385 231 l 463 231 l 463 77 l 0 77 m 771 77 l 771 231 l 848 231 l 848 154 l 1157 154 l 1157 1312 l 848 1312 l 848 617 l 771 617 l 771 771 l 694 771 l 694 926 l 771 926 l 771 1389 l 1234 1389 l 1234 77 l 771 77 z "},"x":{"ha":1234,"x_min":0,"x_max":1080,"o":"m 0 77 l 0 309 l 77 309 l 77 154 l 385 154 l 385 309 l 463 309 l 463 77 l 0 77 m 617 77 l 617 309 l 694 309 l 694 154 l 1003 154 l 1003 309 l 1080 309 l 1080 77 l 617 77 m 77 309 l 77 463 l 154 463 l 154 309 l 77 309 m 463 309 l 463 463 l 617 463 l 617 309 l 463 309 m 926 309 l 926 463 l 1003 463 l 1003 309 l 926 309 m 154 463 l 154 617 l 231 617 l 231 463 l 154 463 m 848 463 l 848 617 l 926 617 l 926 463 l 848 463 m 231 617 l 231 848 l 309 848 l 309 617 l 231 617 m 771 617 l 771 848 l 848 848 l 848 617 l 771 617 m 154 848 l 154 1003 l 231 1003 l 231 848 l 154 848 m 848 848 l 848 1003 l 926 1003 l 926 848 l 848 848 m 77 1003 l 77 1157 l 154 1157 l 154 1003 l 77 1003 m 463 1003 l 463 1157 l 617 1157 l 617 1003 l 463 1003 m 926 1003 l 926 1157 l 1003 1157 l 1003 1003 l 926 1003 m 0 1157 l 0 1389 l 463 1389 l 463 1157 l 385 1157 l 385 1312 l 77 1312 l 77 1157 l 0 1157 m 617 1157 l 617 1389 l 1080 1389 l 1080 1157 l 1003 1157 l 1003 1312 l 694 1312 l 694 1157 l 617 1157 z "},"y":{"ha":1234,"x_min":0,"x_max":1080,"o":"m 309 77 l 309 694 l 385 694 l 385 154 l 694 154 l 694 694 l 771 694 l 771 77 l 309 77 m 231 694 l 231 848 l 309 848 l 309 694 l 231 694 m 771 694 l 771 848 l 848 848 l 848 694 l 771 694 m 154 848 l 154 1003 l 231 1003 l 231 848 l 154 848 m 848 848 l 848 1003 l 926 1003 l 926 848 l 848 848 m 77 1003 l 77 1157 l 154 1157 l 154 1003 l 77 1003 m 463 1003 l 463 1157 l 617 1157 l 617 1003 l 463 1003 m 926 1003 l 926 1157 l 1003 1157 l 1003 1003 l 926 1003 m 0 1157 l 0 1389 l 463 1389 l 463 1157 l 385 1157 l 385 1312 l 77 1312 l 77 1157 l 0 1157 m 617 1157 l 617 1389 l 1080 1389 l 1080 1157 l 1003 1157 l 1003 1312 l 694 1312 l 694 1157 l 617 1157 z "},"z":{"ha":1234,"x_min":0,"x_max":1080,"o":"m 77 463 l 77 540 l 154 540 l 154 463 l 77 463 m 154 540 l 154 617 l 231 617 l 231 540 l 154 540 m 0 77 l 0 463 l 77 463 l 77 154 l 1003 154 l 1003 463 l 463 463 l 463 540 l 540 540 l 540 617 l 617 617 l 617 540 l 1080 540 l 1080 77 l 0 77 m 231 617 l 231 694 l 309 694 l 309 617 l 231 617 m 617 617 l 617 694 l 694 694 l 694 617 l 617 617 m 309 694 l 309 771 l 385 771 l 385 694 l 309 694 m 694 694 l 694 771 l 771 771 l 771 694 l 694 694 m 385 771 l 385 848 l 463 848 l 463 771 l 385 771 m 771 771 l 771 848 l 848 848 l 848 771 l 771 771 m 848 848 l 848 926 l 926 926 l 926 848 l 848 848 m 926 926 l 926 1003 l 1003 1003 l 1003 926 l 926 926 m 463 848 l 463 926 l 0 926 l 0 1389 l 1080 1389 l 1080 1003 l 1003 1003 l 1003 1312 l 77 1312 l 77 1003 l 617 1003 l 617 926 l 540 926 l 540 848 l 463 848 z "},"’":{"ha":77,"x_min":0,"x_max":0,"o":""}}}
